<svg width="2186" height="1722" viewBox="0 0 2186 1722" fill="none" xmlns="http://www.w3.org/2000/svg">
<path d="M254.998 1605C2109 1051.5 1057.45 290.457 2005 135M403.498 1692C2397.5 1324 1205.95 377.457 2153.5 222M367.998 1656.5C2222 1103 1452.5 286 2118 186.5M306.498 1624.5C2160.5 1071 1108.95 309.958 2056.5 154.5M435.496 1721C2118 1185 1149 308 2185.5 251M0.99934 1471C1855 917.501 1168.5 222 1751 0.99997M149.499 1558C2003.5 1004.5 951.955 243.458 1899.5 88M113.999 1522.5C1968 969.001 935.999 742.5 1864 52.5001M52.4987 1490.5C1982.5 1141 1163 251 1802.5 20.5004M181.498 1587C2035.5 1033.5 1266.5 117 1931.5 117" stroke="url(#paint0_linear_20_374)"/>
<defs>
<linearGradient id="paint0_linear_20_374" x1="1883.5" y1="22.9996" x2="565.001" y2="1822" gradientUnits="userSpaceOnUse">
<stop stop-color="#7F5FFF"/>
<stop offset="1" stop-color="white"/>
</linearGradient>
</defs>
</svg>
